<?xml version="1.0" encoding="utf-8"?>
<!-- Generator: Adobe Illustrator 19.2.1, SVG Export Plug-In . SVG Version: 6.00 Build 0)  -->
<svg version="1.1" id="Layer_1" xmlns="http://www.w3.org/2000/svg" xmlns:xlink="http://www.w3.org/1999/xlink" x="0px" y="0px"
	 viewBox="0 0 68 46.5" style="enable-background:new 0 0 68 46.5;" xml:space="preserve">
<style type="text/css">
	.st0{fill:#383838;}
	.st1{fill:#255075;}
</style>
<g>
	<path class="st0" d="M34.3,15c-1.2,2.1-5.2,1.1-6.7,2.7c-0.4,0-0.5-1.3-0.5-1.7C28.9,15.1,31.7,14.2,34.3,15z"/>
	<path class="st0" d="M35.8,12.6c0,0,0.8-0.8,0.9-0.9c0.2-0.2,0.6-0.5,0.7-0.5c0.1,0,0.1-1-1.1-1.2c-0.4-0.1-0.9,0.1-1.3,0.8
		c-1.8-1.4-6.1-1.7-8.7-0.8c-0.1,0.6,0.1,0.9,0.4,1.1c1.3-0.5,3.9-1.8,5-0.3c-1.4,0.6-3,1.1-4.8,1.3c0,0.3-0.2,0.3-0.1,0.6
		c-1.4,0.4-2.2,1.3-3.4,1.9c-0.4,1-1.7,1.2-1.9,2.4c3.1-0.1,4-2.4,6.5-3.1c2,0,4,0,6,0c1.5,0.5,1.5,2.5,2.3,3.7l1.4,0.1
		C36.4,16.9,36,14.8,35.8,12.6z"/>
</g>
<path class="st1" d="M36.1,30.3l3.8-4h-2.1v-8.4h-2.6v10l-1.8,2.2V17.9h-4l-1.8,6.6l-1.7-6.6H22v8.4h-0.6v10H24V33h2.6
	c1.8,0,3.3-1.5,3.3-3.4c0-1-0.5-1.9-1.2-2.5l0,0l1.9-6.9v16h2.7v-3.1l1-1l2.7,4.1h3.4L36.1,30.3z M26,31L26,31L26,31h-2v-2.6v0h1.9
	l0,0c0,0,0,0,0,0c0.7,0,1.3,0.6,1.3,1.3C27.3,30.4,26.7,31,26,31z M24.4,26.3v-6l1.8,6h0H24.4z"/>
</svg>
