<?xml version="1.0" encoding="utf-8"?>
<!-- Generator: Adobe Illustrator 19.2.1, SVG Export Plug-In . SVG Version: 6.00 Build 0)  -->
<svg version="1.1" id="Layer_1" xmlns="http://www.w3.org/2000/svg" xmlns:xlink="http://www.w3.org/1999/xlink" x="0px" y="0px"
	 viewBox="0 0 19 26.7" style="enable-background:new 0 0 19 26.7;" xml:space="preserve">
<style type="text/css">
	.st0{fill:#383838;}
	.st1{fill:#255075;}
</style>
<g>
	<path class="st0" d="M12.9,5.5c-1.2,2.1-5.2,1.1-6.7,2.7c-0.4,0-0.5-1.3-0.5-1.7C7.5,5.6,10.3,4.7,12.9,5.5z"/>
	<path class="st0" d="M14.4,3.1c0,0,0.8-0.8,0.9-0.9C15.5,2,15.9,1.7,16,1.7c0.1,0,0.1-1-1.1-1.2c-0.4-0.1-0.9,0.1-1.3,0.8
		c-1.8-1.4-6.1-1.7-8.7-0.8C4.8,1.1,5,1.4,5.3,1.6c1.3-0.5,3.9-1.8,5-0.3c-1.4,0.6-3,1.1-4.8,1.3c0,0.3-0.2,0.3-0.1,0.6
		C4,3.6,3.2,4.5,2,5.1c-0.4,1-1.7,1.2-1.9,2.4c3.1-0.1,4-2.4,6.5-3.1c2,0,4,0,6,0c1.5,0.5,1.5,2.5,2.3,3.7l1.4,0.1
		C15,7.4,14.6,5.3,14.4,3.1z"/>
</g>
<path class="st1" d="M14.7,20.8l3.8-4h-2.1V8.4h-2.6v10L12,20.6V8.4H8L6.2,15L4.5,8.4H0.6v8.4H0v10h2.6v-3.3h2.6
	c1.8,0,3.3-1.5,3.3-3.4c0-1-0.5-1.9-1.2-2.5l0,0l1.9-6.9v16h2.7v-3.1l1-1l2.7,4.1H19L14.7,20.8z M4.6,21.5L4.6,21.5L4.6,21.5h-2
	v-2.6l0,0h1.9l0,0l0,0c0.7,0,1.3,0.6,1.3,1.3C5.9,20.9,5.3,21.5,4.6,21.5z M3,16.8v-6l1.8,6l0,0H3z"/>
</svg>
